<svg width="35" height="35" viewBox="0 0 35 35" fill="none" xmlns="http://www.w3.org/2000/svg">
<path d="M31.2638 27.8931C31.639 27.3746 31.8609 26.7384 31.8609 26.051V21.9433C31.8609 21.5658 31.5548 21.2597 31.1773 21.2597H28.1222C26.7099 21.2597 25.5609 22.4087 25.5609 23.821V26.051C25.5609 26.738 25.7826 27.3737 26.1573 27.892C25.69 27.9678 25.2404 28.1175 24.8211 28.3367C23.8713 26.9195 22.3152 25.9421 20.5271 25.7772C20.5201 25.7752 20.513 25.7738 20.506 25.7721C21.1457 25.0576 21.5357 24.1151 21.5357 23.0829V17.5C21.5357 17.1224 21.2296 16.8164 20.8521 16.8164H16.6999C14.9157 16.8164 13.4643 18.2679 13.4643 20.052V23.0828C13.4643 24.115 13.8543 25.0576 14.494 25.772C14.487 25.7737 14.4799 25.7752 14.4729 25.7771C12.6846 25.942 11.1284 26.9195 10.1787 28.337C9.75926 28.1179 9.30959 27.968 8.84249 27.8922C9.21724 27.3739 9.43906 26.7381 9.43906 26.051V21.9433C9.43906 21.5658 9.13295 21.2597 8.75547 21.2597H5.70035C4.28805 21.2597 3.13906 22.4087 3.13906 23.821V26.051C3.13906 26.7385 3.36103 27.3746 3.73618 27.8931C1.62025 28.2389 0 30.0791 0 32.2912V34.3164C0 34.6939 0.306113 35 0.683594 35H34.3164C34.6939 35 35 34.6939 35 34.3164V32.2912C35 30.0791 33.3797 28.2389 31.2638 27.8931ZM4.50625 23.821C4.50625 23.1626 5.04191 22.6269 5.70035 22.6269H8.07188V23.4595C8.07188 23.8677 7.73979 24.1998 7.33161 24.1998H4.50625V23.821ZM4.50625 25.5669H7.33161C7.59206 25.5669 7.84144 25.5191 8.07188 25.4323V26.051C8.07188 27.034 7.27214 27.8339 6.28906 27.8339C5.30599 27.8339 4.50625 27.034 4.50625 26.051V25.5669ZM6.72978 29.201L6.28906 29.6418L5.84835 29.201H6.72978ZM9.19789 31.564V33.6328H1.36719V32.2912C1.36719 30.758 2.48985 29.4825 3.95616 29.2423L5.80569 31.0919C5.93394 31.22 6.10777 31.2921 6.28906 31.2921C6.47035 31.2921 6.64419 31.22 6.77243 31.0919L8.62251 29.2417C8.94927 29.2949 9.26352 29.4002 9.55637 29.5543C9.32477 30.1809 9.19789 30.8579 9.19789 31.564ZM17.5001 25.7514C16.0286 25.7514 14.8315 24.5543 14.8315 23.0829V22.1794H18.917C19.37 22.1794 19.7965 22.0636 20.1686 21.8603V23.0829C20.1686 24.5543 18.9715 25.7514 17.5001 25.7514ZM18.6916 27.1185L17.5 28.3102L16.3084 27.1185H18.6916ZM14.8314 20.052H14.8315C14.8315 19.0217 15.6696 18.1836 16.6999 18.1836H20.1685V19.5606C20.1685 20.2508 19.607 20.8123 18.9169 20.8123H14.8314V20.052ZM24.4349 33.6328H23.1055H11.8945H10.5651V32.2656H15.0163C15.3938 32.2656 15.6999 31.9595 15.6999 31.582C15.6999 31.2045 15.3938 30.8984 15.0163 30.8984H10.6151C10.9081 28.9556 12.4633 27.4219 14.4158 27.1595L17.0166 29.7603C17.1501 29.8938 17.3251 29.9605 17.5 29.9605C17.6749 29.9605 17.8499 29.8938 17.9834 29.7603L20.5842 27.1595C22.755 27.4512 24.4349 29.3145 24.4349 31.564V33.6328ZM26.9281 23.821C26.9281 23.1626 27.4638 22.6269 28.1222 22.6269H30.4937V23.4595C30.4937 23.8677 30.1617 24.1998 29.7535 24.1998H26.9281V23.821ZM26.9281 25.5669H29.7535C30.0139 25.5669 30.2633 25.5191 30.4937 25.4323V26.051C30.4937 27.034 29.694 27.8339 28.7109 27.8339C27.7279 27.8339 26.9281 27.034 26.9281 26.051V25.5669ZM29.1516 29.201L28.7109 29.6418L28.2702 29.201H29.1516ZM25.802 33.6328V31.564C25.802 30.8578 25.6752 30.1808 25.4435 29.5542C25.7362 29.4 26.0504 29.2947 26.3772 29.2416L28.2275 31.0919C28.3557 31.22 28.5296 31.2921 28.7109 31.2921C28.8922 31.2921 29.066 31.22 29.1942 31.0919L31.0438 29.2423C32.5101 29.4826 33.6327 30.758 33.6327 32.2912V33.6328H25.802Z" fill="#00B2FF"/>
<path d="M20.869 4.46652C20.602 4.19958 20.1693 4.19958 19.9022 4.46652L16.5478 7.82098L15.0977 6.37087C14.8307 6.10386 14.398 6.10386 14.131 6.37081C13.8641 6.63775 13.8641 7.0706 14.131 7.33761L16.0645 9.27109C16.1927 9.39926 16.3665 9.47131 16.5478 9.47131C16.7291 9.47131 16.903 9.39926 17.0312 9.27109L20.869 5.43326C21.136 5.16631 21.136 4.73346 20.869 4.46652Z" fill="#00B2FF"/>
<path d="M20.295 0.592799C19.9503 0.439058 19.5461 0.593892 19.3923 0.938697C19.2385 1.2835 19.3934 1.68771 19.7382 1.84145C21.7205 2.72554 23.0015 4.69887 23.0015 6.86874C23.0015 9.90225 20.5335 12.3702 17.5 12.3702C14.4664 12.3702 11.9985 9.90225 11.9985 6.86874C11.9985 4.71008 13.2702 2.74086 15.2382 1.85198C15.5823 1.6966 15.7353 1.29164 15.5798 0.947584C15.4244 0.603463 15.0193 0.450543 14.6755 0.605924C12.2188 1.71553 10.6313 4.1738 10.6313 6.86867C10.6313 10.6561 13.7126 13.7374 17.5 13.7374C21.2873 13.7374 24.3686 10.6561 24.3686 6.86874C24.3686 4.15986 22.7696 1.69639 20.295 0.592799Z" fill="#00B2FF"/>
<path d="M17.5245 0H17.5C17.1225 0 16.8164 0.306045 16.8164 0.683594C16.8164 1.06114 17.1225 1.36719 17.5 1.36719H17.518C17.5191 1.36719 17.5202 1.36719 17.5213 1.36719C17.8974 1.36719 18.2031 1.06326 18.2048 0.686807C18.2066 0.309258 17.902 0.00177734 17.5245 0Z" fill="#00B2FF"/>
<path d="M17.9832 31.0987C17.8562 30.9716 17.6798 30.8984 17.5 30.8984C17.3202 30.8984 17.1438 30.9716 17.0167 31.0987C16.8896 31.2259 16.8164 31.4022 16.8164 31.582C16.8164 31.7618 16.8895 31.9382 17.0167 32.0653C17.1439 32.1925 17.3202 32.2656 17.5 32.2656C17.6798 32.2656 17.8562 32.1925 17.9832 32.0653C18.1104 31.9382 18.1836 31.7618 18.1836 31.582C18.1836 31.4022 18.1104 31.2259 17.9832 31.0987Z" fill="#00B2FF"/>
</svg>
